<?xml version="1.0" encoding="UTF-8"?>
<svg version="1.1" xmlns="http://www.w3.org/2000/svg" width="96" height="96">
<path d="M0 0 C1.86267858 2.53787235 3.43924812 5.20588127 5 7.9375 C5.65355469 9.06877319 5.65355469 9.06877319 6.3203125 10.22290039 C14.46571735 24.63435302 19.86326157 40.91358905 16.46484375 57.6328125 C15.48379894 60.53842062 14.20965832 62.76142329 12.1875 65.0625 C9.02023522 66.41989919 7.28197 65.984591 4 65 C1.96166576 63.7260411 -0.03852126 62.38938077 -2 61 C-2.99 60.525625 -3.98 60.05125 -5 59.5625 C-10.84402543 56.51873676 -15.07654471 52.19280848 -19 47 C-19 46.34 -19 45.68 -19 45 C-24.75418665 44.5748625 -29.27157915 44.59712183 -33.8828125 48.33984375 C-36.40182114 51.14083097 -38.73234784 53.99289605 -41 57 C-44.42658027 61.48688059 -46.86090316 63.69626693 -52 66 C-55.3125 66 -55.3125 66 -58 65 C-58.4640625 64.01 -58.4640625 64.01 -58.9375 63 C-59.288125 62.34 -59.63875 61.68 -60 61 C-61.6396875 60.814375 -61.6396875 60.814375 -63.3125 60.625 C-67.31767882 59.94615613 -68.65379851 58.99870669 -71 55.7109375 C-76.3788117 46.50812685 -74.52437562 34.22030585 -72.6328125 24.20703125 C-72 22 -72 22 -70 19 C-68.35 19.33 -66.7 19.66 -65 20 C-65.0721875 20.78761719 -65.144375 21.57523438 -65.21875 22.38671875 C-67.14917059 38.15846985 -67.14917059 38.15846985 -63 53 C-63.061875 51.865625 -63.12375 50.73125 -63.1875 49.5625 C-63.16489536 35.27636577 -59.90380951 19.72087379 -50 9 C-44.18760584 3.49706201 -35.6110751 3.65095705 -28.0625 3.375 C-27.22009766 3.33632813 -26.37769531 3.29765625 -25.50976562 3.2578125 C-20.00271437 3.02040305 -14.51179601 2.96662888 -9 3 C-22.05450422 -1.16633114 -39.16939644 -2.226577 -52.08203125 2.8125 C-54.91857759 4.5359712 -56.28568998 6.45017816 -58.0625 9.25 C-59.0215625 10.61125 -59.0215625 10.61125 -60 12 C-62.6875 12.4375 -62.6875 12.4375 -65 12 C-66 11 -66 11 -66.375 8.875 C-65.75456544 4.11833501 -63.13669138 0.6803107 -59.390625 -2.265625 C-44.91740711 -11.16200664 -12.89097012 -12.06310966 0 0 Z " fill="#8BE5F0" transform="translate(79,22)"/>
<path d="M0 0 C1.65 0.33 3.3 0.66 5 1 C4.9278125 1.78761719 4.855625 2.57523438 4.78125 3.38671875 C2.85082941 19.15846985 2.85082941 19.15846985 7 34 C14.08017905 33.11803998 17.7326163 27.82980114 22 22.50390625 C23.19948029 20.94208295 24.38577362 19.369986 25.5546875 17.78515625 C27 16 27 16 29 15 C32.26345355 14.6826919 35.53550868 14.67580607 38.8125 14.625 C40.16698242 14.56892578 40.16698242 14.56892578 41.54882812 14.51171875 C48.24095499 14.42321156 48.24095499 14.42321156 51.765625 17.1015625 C52.50296875 18.05804688 53.2403125 19.01453125 54 20 C54.95988742 21.10556819 55.92777352 22.20422787 56.90234375 23.296875 C58.43110561 25.03329533 59.95493856 26.77056625 61.45117188 28.53515625 C64.1032811 31.51236274 65.41645723 32.84618757 69.37890625 33.890625 C70.24386719 33.92671875 71.10882813 33.9628125 72 34 C73.67110042 31.03821227 74.32682752 28.62928808 74.625 25.25 C74.69976562 24.45078125 74.77453125 23.6515625 74.8515625 22.828125 C74.90054688 22.22484375 74.94953125 21.6215625 75 21 C76.65614657 20.61781233 78.32457024 20.28604898 80 20 C81.53123685 21.53123685 81.24307107 22.93212824 81.3125 25.0625 C81.24595167 31.02332893 79.28268236 35.71731764 75.0625 39.9375 C72.55439367 41.22955478 70.83774531 41.86486927 68 42 C60.79863258 39.2420295 55.56799129 34.04587082 51 28 C51 27.34 51 26.68 51 26 C45.24581335 25.5748625 40.72842085 25.59712183 36.1171875 29.33984375 C33.59817886 32.14083097 31.26765216 34.99289605 29 38 C25.57341973 42.48688059 23.13909684 44.69626693 18 47 C14.6875 47 14.6875 47 12 46 C11.690625 45.34 11.38125 44.68 11.0625 44 C10.711875 43.34 10.36125 42.68 10 42 C8.3603125 41.814375 8.3603125 41.814375 6.6875 41.625 C2.68232118 40.94615613 1.34620149 39.99870669 -1 36.7109375 C-6.3788117 27.50812685 -4.52437562 15.22030585 -2.6328125 5.20703125 C-2 3 -2 3 0 0 Z " fill="#191C41" transform="translate(9,41)"/>
<path d="M0 0 C7.23678309 7.83984834 11.97807298 18.62482764 12.3515625 29.35546875 C12.31804687 30.04253906 12.28453125 30.72960938 12.25 31.4375 C10.27 32.4275 10.27 32.4275 8.25 33.4375 C5.82437957 29.74066207 4.4891887 26.31473984 3.3125 22.0625 C0.60771753 12.9944315 0.60771753 12.9944315 -5.6875 6.125 C-17.86699431 0.04829299 -34.91884065 1.60401939 -47.75 4.4375 C-51.68059896 5.97139228 -53.5330466 8.09563404 -55.8125 11.6875 C-56.451875 12.595 -57.09125 13.5025 -57.75 14.4375 C-60.4375 14.875 -60.4375 14.875 -62.75 14.4375 C-63.75 13.4375 -63.75 13.4375 -64.125 11.3125 C-63.50456544 6.55583501 -60.88669138 3.1178107 -57.140625 0.171875 C-42.53701229 -8.80465758 -14.77703994 -8.39604542 0 0 Z " fill="#181A40" transform="translate(76.75,19.5625)"/>
<path d="M0 0 C4.06096908 1.14786401 5.25144762 2.46785452 7.46875 5.98046875 C6.71851563 5.92503906 5.96828125 5.86960937 5.1953125 5.8125 C0.03630214 5.78001253 -3.31408196 5.99255052 -7.4140625 9.3203125 C-9.93307114 12.12129972 -12.26359784 14.9733648 -14.53125 17.98046875 C-17.95783027 22.46734934 -20.39215316 24.67673568 -25.53125 26.98046875 C-28.78125 27.04296875 -28.78125 27.04296875 -31.53125 25.98046875 C-33.203125 23.4140625 -33.203125 23.4140625 -34.53125 20.98046875 C-33.94859375 20.70976563 -33.3659375 20.4390625 -32.765625 20.16015625 C-27.36408067 17.32349618 -23.92037558 14.40450778 -20.34667969 9.54663086 C-14.42189379 1.56222871 -10.02157604 -0.87523593 0 0 Z " fill="#8BE4F0" transform="translate(52.53125,61.01953125)"/>
<path d="M0 0 C1.67542976 0.28604898 3.34385343 0.61781233 5 1 C5 2.65 5 4.3 5 6 C6.65 6 8.3 6 10 6 C10.38218767 7.65614657 10.71395102 9.32457024 11 11 C10 12 10 12 7.4375 12.0625 C6.633125 12.041875 5.82875 12.02125 5 12 C5 13.65 5 15.3 5 17 C3.34385343 17.38218767 1.67542976 17.71395102 0 18 C-1 17 -1 17 -1.0625 14.4375 C-1.041875 13.633125 -1.02125 12.82875 -1 12 C-1.804375 12.020625 -2.60875 12.04125 -3.4375 12.0625 C-6 12 -6 12 -7 11 C-7.04063832 9.33382885 -7.042721 7.66611905 -7 6 C-5.02 6 -3.04 6 -1 6 C-1.020625 5.195625 -1.04125 4.39125 -1.0625 3.5625 C-1 1 -1 1 0 0 Z " fill="#1D2146" transform="translate(29,34)"/>
<path d="M0 0 C1.65 0.33 3.3 0.66 5 1 C4.67 2.65 4.34 4.3 4 6 C2.35 5.67 0.7 5.34 -1 5 C-0.67 3.35 -0.34 1.7 0 0 Z " fill="#283658" transform="translate(63,48)"/>
<path d="M0 0 C1.65 0.33 3.3 0.66 5 1 C4.67 2.65 4.34 4.3 4 6 C2.35 5.67 0.7 5.34 -1 5 C-0.67 3.35 -0.34 1.7 0 0 Z " fill="#283658" transform="translate(71,40)"/>
<path d="M0 0 C1.65 0.33 3.3 0.66 5 1 C4.67 2.65 4.34 4.3 4 6 C2.35 5.67 0.7 5.34 -1 5 C-0.67 3.35 -0.34 1.7 0 0 Z " fill="#283658" transform="translate(55,40)"/>
<path d="M0 0 C1.65 0.33 3.3 0.66 5 1 C4.67 2.65 4.34 4.3 4 6 C2.35 5.67 0.7 5.34 -1 5 C-0.67 3.35 -0.34 1.7 0 0 Z " fill="#283658" transform="translate(63,32)"/>
</svg>
